<svg id="visual" viewBox="0 0 900 600" width="900" height="600" xmlns="http://www.w3.org/2000/svg" xmlns:xlink="http://www.w3.org/1999/xlink" version="1.1"><path d="M0 251L21.5 262.2C43 273.3 86 295.7 128.8 295C171.7 294.3 214.3 270.7 257.2 266.5C300 262.3 343 277.7 385.8 289C428.7 300.3 471.3 307.7 514.2 306.5C557 305.3 600 295.7 642.8 291.7C685.7 287.7 728.3 289.3 771.2 289.2C814 289 857 287 878.5 286L900 285L900 601L878.5 601C857 601 814 601 771.2 601C728.3 601 685.7 601 642.8 601C600 601 557 601 514.2 601C471.3 601 428.7 601 385.8 601C343 601 300 601 257.2 601C214.3 601 171.7 601 128.8 601C86 601 43 601 21.5 601L0 601Z" fill="#245eff"></path><path d="M0 294L21.5 299C43 304 86 314 128.8 316.5C171.7 319 214.3 314 257.2 311.8C300 309.7 343 310.3 385.8 320.7C428.7 331 471.3 351 514.2 353.3C557 355.7 600 340.3 642.8 336.7C685.7 333 728.3 341 771.2 350C814 359 857 369 878.5 374L900 379L900 601L878.5 601C857 601 814 601 771.2 601C728.3 601 685.7 601 642.8 601C600 601 557 601 514.2 601C471.3 601 428.7 601 385.8 601C343 601 300 601 257.2 601C214.3 601 171.7 601 128.8 601C86 601 43 601 21.5 601L0 601Z" fill="#717cff"></path><path d="M0 390L21.5 386.7C43 383.3 86 376.7 128.8 374.5C171.7 372.3 214.3 374.7 257.2 381.3C300 388 343 399 385.8 399.8C428.7 400.7 471.3 391.3 514.2 380.3C557 369.3 600 356.7 642.8 358.5C685.7 360.3 728.3 376.7 771.2 390.3C814 404 857 415 878.5 420.5L900 426L900 601L878.5 601C857 601 814 601 771.2 601C728.3 601 685.7 601 642.8 601C600 601 557 601 514.2 601C471.3 601 428.7 601 385.8 601C343 601 300 601 257.2 601C214.3 601 171.7 601 128.8 601C86 601 43 601 21.5 601L0 601Z" fill="#9c9bff"></path><path d="M0 470L21.5 464.5C43 459 86 448 128.8 441C171.7 434 214.3 431 257.2 430.8C300 430.7 343 433.3 385.8 428.8C428.7 424.3 471.3 412.7 514.2 408.8C557 405 600 409 642.8 412.5C685.7 416 728.3 419 771.2 418.8C814 418.7 857 415.3 878.5 413.7L900 412L900 601L878.5 601C857 601 814 601 771.2 601C728.3 601 685.7 601 642.8 601C600 601 557 601 514.2 601C471.3 601 428.7 601 385.8 601C343 601 300 601 257.2 601C214.3 601 171.7 601 128.8 601C86 601 43 601 21.5 601L0 601Z" fill="#c0bbff"></path><path d="M0 481L21.5 485.8C43 490.7 86 500.3 128.8 502.3C171.7 504.3 214.3 498.7 257.2 498.2C300 497.7 343 502.3 385.8 499.8C428.7 497.3 471.3 487.7 514.2 485.7C557 483.7 600 489.3 642.8 495.8C685.7 502.3 728.3 509.7 771.2 510.7C814 511.7 857 506.3 878.5 503.7L900 501L900 601L878.5 601C857 601 814 601 771.2 601C728.3 601 685.7 601 642.8 601C600 601 557 601 514.2 601C471.3 601 428.7 601 385.8 601C343 601 300 601 257.2 601C214.3 601 171.7 601 128.8 601C86 601 43 601 21.5 601L0 601Z" fill="#e1ddff"></path><path d="M0 526L21.5 525.3C43 524.7 86 523.3 128.8 528.7C171.7 534 214.3 546 257.2 551.3C300 556.7 343 555.3 385.8 549C428.7 542.7 471.3 531.3 514.2 525.2C557 519 600 518 642.8 522.3C685.7 526.7 728.3 536.3 771.2 541C814 545.7 857 545.3 878.5 545.2L900 545L900 601L878.5 601C857 601 814 601 771.2 601C728.3 601 685.7 601 642.8 601C600 601 557 601 514.2 601C471.3 601 428.7 601 385.8 601C343 601 300 601 257.2 601C214.3 601 171.7 601 128.8 601C86 601 43 601 21.5 601L0 601Z" fill="#ffffff"></path></svg>